<?xml version="1.0" encoding="UTF-8" standalone="no"?><!DOCTYPE svg PUBLIC "-//W3C//DTD SVG 1.1//EN" "http://www.w3.org/Graphics/SVG/1.1/DTD/svg11.dtd"><svg width="100%" height="100%" viewBox="0 0 50 50" version="1.1" xmlns="http://www.w3.org/2000/svg" xmlns:xlink="http://www.w3.org/1999/xlink" xml:space="preserve" style="fill-rule:evenodd;clip-rule:evenodd;stroke-linejoin:round;stroke-miterlimit:1.41421;"><g><path d="M14.459,24.517c0,2.238 0.693,4.376 2.004,6.183c0.15,0.207 0.435,0.264 0.652,0.129l2.754,-1.697c0.116,-0.071 0.196,-0.187 0.223,-0.321c0.026,-0.133 -0.004,-0.272 -0.084,-0.382c-0.766,-1.056 -1.171,-2.306 -1.171,-3.615c0,-3.398 2.764,-6.163 6.163,-6.163c3.398,0 6.163,2.765 6.163,6.163c0,1.309 -0.405,2.559 -1.171,3.615c-0.08,0.11 -0.11,0.249 -0.084,0.382c0.026,0.134 0.107,0.25 0.223,0.321l2.753,1.697c0.218,0.135 0.503,0.078 0.653,-0.129c1.311,-1.807 2.004,-3.945 2.004,-6.183c0,-5.812 -4.729,-10.54 -10.541,-10.54c-5.812,0 -10.541,4.728 -10.541,10.54Z" style="fill:#fff;fill-rule:nonzero;"/><path d="M28.953,29.313c-0.159,-0.085 -0.352,-0.076 -0.502,0.024l-1.721,1.148l0,-6.946c0,-0.953 -0.776,-1.729 -1.73,-1.729c-0.954,0 -1.73,0.776 -1.73,1.729l0,6.946l-1.721,-1.148c-0.15,-0.1 -0.343,-0.109 -0.502,-0.024c-0.159,0.085 -0.258,0.25 -0.258,0.431l0,3.309c0,0.163 0.081,0.316 0.217,0.406l3.723,2.482c0.164,0.11 0.378,0.11 0.542,0l3.723,-2.482c0.136,-0.09 0.217,-0.243 0.217,-0.406l0,-3.309c0,-0.181 -0.099,-0.346 -0.258,-0.431Z" style="fill:#fff;fill-rule:nonzero;"/></g></svg>