<?xml version="1.0" encoding="UTF-8" standalone="no"?><!DOCTYPE svg PUBLIC "-//W3C//DTD SVG 1.1//EN" "http://www.w3.org/Graphics/SVG/1.1/DTD/svg11.dtd"><svg width="100%" height="100%" viewBox="0 0 22 22" version="1.1" xmlns="http://www.w3.org/2000/svg" xmlns:xlink="http://www.w3.org/1999/xlink" xml:space="preserve" style="fill-rule:evenodd;clip-rule:evenodd;stroke-linecap:round;stroke-linejoin:round;stroke-miterlimit:1.5;"><g><path d="M6.28,12.573l-0.786,0l0,3.933l3.933,0l0,-0.786l-3.147,0l0,-3.147Z" style="fill:#ebebeb;fill-rule:nonzero;"/><path d="M6.28,6.28l3.147,0l0,-0.786l-3.933,0l0,3.933l0.786,0l0,-3.147Z" style="fill:#ebebeb;fill-rule:nonzero;"/><path d="M15.72,15.72l-3.147,0l0,0.786l3.933,0l0,-3.933l-0.786,0l0,3.147Z" style="fill:#ebebeb;fill-rule:nonzero;"/><path d="M12.573,5.494l0,0.786l3.147,0l0,3.147l0.786,0l0,-3.933l-3.933,0Z" style="fill:#ebebeb;fill-rule:nonzero;"/><circle cx="11" cy="11" r="2.771" style="fill:none;stroke:#f1f1f1;stroke-width:0.63px;"/><path d="M12.832,9.161l-3.671,3.671l0.007,0.007l3.671,-3.671l-0.007,-0.007Z" style="fill:none;stroke:#f1f1f1;stroke-width:0.63px;"/></g></svg>