<?xml version="1.0" encoding="UTF-8" standalone="no"?><!DOCTYPE svg PUBLIC "-//W3C//DTD SVG 1.1//EN" "http://www.w3.org/Graphics/SVG/1.1/DTD/svg11.dtd"><svg width="100%" height="100%" viewBox="0 0 125 125" version="1.1" xmlns="http://www.w3.org/2000/svg" xmlns:xlink="http://www.w3.org/1999/xlink" xml:space="preserve" style="fill-rule:evenodd;clip-rule:evenodd;stroke-linejoin:round;stroke-miterlimit:1.41421;"><g><path d="M116.35,124.5c3.3,0 6,-2.699 6,-6l0,-112.5c0,-3.3 -2.7,-6 -6,-6l-36,0c-3.3,0 -6,2.7 -6,6l0,112.5c0,3.301 2.7,6 6,6l36,0Z" style="fill:#fff;fill-rule:nonzero;"/><path d="M44.15,124.5c3.3,0 6,-2.699 6,-6l0,-112.5c0,-3.3 -2.7,-6 -6,-6l-36,0c-3.3,0 -6,2.7 -6,6l0,112.5c0,3.301 2.7,6 6,6l36,0Z" style="fill:#fff;fill-rule:nonzero;"/></g></svg>