<?xml version="1.0" encoding="UTF-8" standalone="no"?><!DOCTYPE svg PUBLIC "-//W3C//DTD SVG 1.1//EN" "http://www.w3.org/Graphics/SVG/1.1/DTD/svg11.dtd"><svg width="100%" height="100%" viewBox="0 0 233 233" version="1.1" xmlns="http://www.w3.org/2000/svg" xmlns:xlink="http://www.w3.org/1999/xlink" xml:space="preserve" style="fill-rule:evenodd;clip-rule:evenodd;stroke-linejoin:round;stroke-miterlimit:1.41421;"><path id="Play" d="M224.426,103.573l-117.431,-73.989c-3.472,-2.066 -7.782,-1.722 -11.038,-1.722c-13.023,0 -12.965,10.054 -12.965,12.602l0,151.224c0,2.154 -0.057,12.603 12.965,12.603c3.256,0 7.567,0.343 11.038,-1.723l117.431,-73.988c9.638,-5.736 7.973,-12.504 7.973,-12.504c0,0 1.666,-6.768 -7.973,-12.503l0,0Z" style="fill:#333;"/><path id="Play1" d="M147.861,103.038l-122.457,-77.155c-3.62,-2.155 -8.115,-1.796 -11.51,-1.796c-13.58,0 -13.52,10.485 -13.52,13.141l0,157.696c0,2.246 -0.06,13.142 13.52,13.142c3.395,0 7.891,0.358 11.51,-1.797l122.457,-77.154c10.051,-5.981 8.314,-13.039 8.314,-13.039c0,0 1.738,-7.058 -8.314,-13.038l0,0Z" style="fill:#333;"/></svg>