<?xml version="1.0" encoding="UTF-8" standalone="no"?><!DOCTYPE svg PUBLIC "-//W3C//DTD SVG 1.1//EN" "http://www.w3.org/Graphics/SVG/1.1/DTD/svg11.dtd"><svg width="100%" height="100%" viewBox="0 0 310 310" version="1.1" xmlns="http://www.w3.org/2000/svg" xmlns:xlink="http://www.w3.org/1999/xlink" xml:space="preserve" style="fill-rule:evenodd;clip-rule:evenodd;stroke-linejoin:round;stroke-miterlimit:1.41421;"><rect x="107.405" y="103.478" width="113.027" height="106.854" style="fill:#fff;"/><path id="XMLID_823_" d="M297.917,64.645c-11.19,-13.302 -31.85,-18.728 -71.306,-18.728l-143.225,0c-40.359,0 -61.369,5.776 -72.517,19.938c-10.869,13.808 -10.869,34.153 -10.869,62.311l0,53.669c0,54.551 12.896,82.248 83.386,82.248l143.226,0c34.216,0 53.176,-4.788 65.442,-16.527c12.579,-12.038 17.946,-31.693 17.946,-65.721l0,-53.669c0,-29.695 -0.841,-50.16 -12.083,-63.521Zm-98.896,97.765l-65.038,33.991c-1.454,0.76 -3.044,1.137 -4.632,1.137c-1.798,0 -3.592,-0.484 -5.181,-1.446c-2.992,-1.813 -4.819,-5.056 -4.819,-8.554l0,-67.764c0,-3.492 1.822,-6.732 4.808,-8.546c2.987,-1.814 6.702,-1.938 9.801,-0.328l65.038,33.772c3.309,1.718 5.387,5.134 5.392,8.861c0.004,3.73 -2.065,7.151 -5.369,8.877l0,0Z" style="fill:#ee4037;fill-rule:nonzero;"/></svg>