<?xml version="1.0" encoding="UTF-8" standalone="no"?><!DOCTYPE svg PUBLIC "-//W3C//DTD SVG 1.1//EN" "http://www.w3.org/Graphics/SVG/1.1/DTD/svg11.dtd"><svg width="100%" height="100%" viewBox="0 0 50 50" version="1.1" xmlns="http://www.w3.org/2000/svg" xmlns:xlink="http://www.w3.org/1999/xlink" xml:space="preserve" style="fill-rule:evenodd;clip-rule:evenodd;stroke-linejoin:round;stroke-miterlimit:1.41421;"><g><path d="M34.994,23.334c-0.347,-0.256 -0.78,-0.576 -0.837,-0.787c-0.062,-0.231 0.159,-0.741 0.337,-1.149c0.305,-0.703 0.621,-1.43 0.271,-2.036c-0.355,-0.613 -1.149,-0.702 -1.918,-0.789c-0.437,-0.049 -0.982,-0.109 -1.146,-0.273c-0.164,-0.164 -0.224,-0.708 -0.273,-1.146c-0.087,-0.769 -0.177,-1.563 -0.789,-1.918c-0.607,-0.352 -1.333,-0.035 -2.035,0.271c-0.407,0.177 -0.916,0.401 -1.149,0.337c-0.212,-0.056 -0.532,-0.489 -0.788,-0.837c-0.442,-0.6 -0.944,-1.28 -1.667,-1.28c-0.723,0 -1.225,0.68 -1.667,1.279c-0.255,0.347 -0.575,0.78 -0.786,0.837c-0.231,0.061 -0.741,-0.16 -1.15,-0.337c-0.701,-0.305 -1.428,-0.621 -2.035,-0.271c-0.613,0.355 -0.702,1.149 -0.789,1.918c-0.049,0.437 -0.109,0.982 -0.273,1.146c-0.164,0.164 -0.708,0.224 -1.146,0.273c-0.769,0.087 -1.563,0.177 -1.918,0.789c-0.351,0.605 -0.035,1.332 0.271,2.035c0.177,0.408 0.399,0.917 0.337,1.149c-0.056,0.212 -0.489,0.532 -0.837,0.788c-0.6,0.442 -1.28,0.944 -1.28,1.667c0,0.723 0.68,1.225 1.279,1.666c0.347,0.256 0.78,0.576 0.837,0.787c0.062,0.231 -0.159,0.741 -0.337,1.15c-0.305,0.702 -0.621,1.429 -0.271,2.035c0.355,0.613 1.149,0.702 1.918,0.789c0.437,0.049 0.982,0.109 1.146,0.273c0.164,0.164 0.224,0.709 0.273,1.146c0.087,0.769 0.176,1.563 0.788,1.918c0.606,0.35 1.333,0.035 2.036,-0.271c0.407,-0.177 0.916,-0.399 1.149,-0.337c0.212,0.056 0.532,0.489 0.788,0.837c0.442,0.6 0.944,1.28 1.667,1.28c0.723,0 1.225,-0.68 1.667,-1.279c0.256,-0.347 0.576,-0.78 0.787,-0.837c0.23,-0.062 0.74,0.159 1.15,0.337c0.702,0.305 1.427,0.621 2.035,0.271c0.613,-0.355 0.702,-1.149 0.789,-1.918c0.048,-0.438 0.109,-0.982 0.272,-1.146c0.163,-0.164 0.708,-0.224 1.146,-0.273c0.769,-0.087 1.563,-0.177 1.918,-0.789c0.351,-0.605 0.035,-1.332 -0.271,-2.035c-0.177,-0.408 -0.399,-0.917 -0.337,-1.149c0.056,-0.212 0.489,-0.532 0.837,-0.788c0.6,-0.442 1.28,-0.944 1.28,-1.667c0,-0.723 -0.68,-1.225 -1.279,-1.666Zm-0.581,2.544c-0.52,0.384 -1.058,0.78 -1.203,1.323c-0.151,0.562 0.121,1.189 0.385,1.795c0.169,0.388 0.424,0.974 0.322,1.151c-0.107,0.186 -0.752,0.258 -1.179,0.306c-0.651,0.074 -1.324,0.149 -1.73,0.555c-0.406,0.406 -0.48,1.078 -0.554,1.729c-0.048,0.427 -0.12,1.072 -0.306,1.179c-0.177,0.104 -0.764,-0.153 -1.152,-0.322c-0.606,-0.264 -1.232,-0.536 -1.795,-0.385c-0.543,0.145 -0.939,0.683 -1.323,1.203c-0.259,0.35 -0.65,0.881 -0.878,0.881c-0.228,0 -0.62,-0.53 -0.878,-0.881c-0.384,-0.52 -0.78,-1.058 -1.323,-1.203c-0.112,-0.03 -0.225,-0.043 -0.341,-0.043c-0.468,0 -0.967,0.216 -1.453,0.43c-0.389,0.169 -0.977,0.424 -1.152,0.322c-0.186,-0.108 -0.258,-0.752 -0.305,-1.179c-0.074,-0.651 -0.149,-1.324 -0.555,-1.73c-0.406,-0.406 -1.08,-0.481 -1.73,-0.555c-0.427,-0.048 -1.072,-0.12 -1.179,-0.306c-0.103,-0.177 0.153,-0.764 0.322,-1.152c0.262,-0.606 0.535,-1.233 0.385,-1.795c-0.145,-0.543 -0.683,-0.939 -1.203,-1.323c-0.074,-0.054 -0.155,-0.115 -0.239,-0.179c-0.311,-0.238 -0.642,-0.52 -0.642,-0.699c0,-0.227 0.531,-0.619 0.879,-0.877c0.52,-0.384 1.058,-0.78 1.203,-1.323c0.151,-0.562 -0.121,-1.189 -0.385,-1.795c-0.169,-0.388 -0.424,-0.974 -0.322,-1.151c0.108,-0.186 0.752,-0.258 1.179,-0.306c0.651,-0.074 1.324,-0.149 1.73,-0.555c0.406,-0.406 0.481,-1.079 0.555,-1.73c0.048,-0.427 0.12,-1.072 0.305,-1.179c0.178,-0.102 0.765,0.153 1.153,0.322c0.606,0.264 1.231,0.534 1.795,0.385c0.543,-0.145 0.939,-0.683 1.323,-1.203c0.259,-0.35 0.65,-0.881 0.878,-0.881c0.227,0 0.618,0.531 0.878,0.879c0.384,0.52 0.78,1.058 1.323,1.203c0.563,0.153 1.189,-0.12 1.795,-0.385c0.388,-0.169 0.974,-0.425 1.151,-0.322c0.186,0.108 0.258,0.752 0.306,1.179c0.074,0.651 0.149,1.324 0.555,1.73c0.406,0.406 1.079,0.481 1.73,0.555c0.427,0.048 1.072,0.12 1.179,0.306c0.103,0.177 -0.153,0.764 -0.322,1.152c-0.263,0.606 -0.535,1.233 -0.385,1.795c0.145,0.543 0.683,0.939 1.203,1.323c0.35,0.259 0.881,0.65 0.881,0.878c0,0.228 -0.53,0.62 -0.881,0.878Z" style="fill:#3b9bd5;fill-rule:nonzero;"/><g><g><path d="M17.646,26.129l0.108,-1.111l0.972,0.095l0.095,-0.967l1.106,0.108l-0.094,0.967l0.972,0.095l-0.109,1.112l-0.972,-0.095l-0.094,0.967l-1.107,-0.109l0.095,-0.967l-0.972,-0.095Z" style="fill:#3b9bd5;fill-rule:nonzero;"/><path d="M21.933,29.482l0.651,-6.664l-0.907,-0.089l0.129,-1.321c0.098,-0.048 0.229,-0.101 0.393,-0.161c0.163,-0.059 0.291,-0.108 0.382,-0.146c0.091,-0.038 0.194,-0.105 0.311,-0.201c0.117,-0.096 0.219,-0.215 0.307,-0.357l1.326,0.129l-0.877,8.978l-1.715,-0.168Z" style="fill:#3b9bd5;fill-rule:nonzero;"/><path d="M27.947,27.413l0.361,-3.694c0.085,-0.861 -0.098,-1.313 -0.546,-1.357c-0.123,-0.012 -0.231,0.01 -0.324,0.064c-0.092,0.055 -0.165,0.123 -0.218,0.205c-0.054,0.082 -0.099,0.188 -0.137,0.317c-0.038,0.129 -0.064,0.238 -0.077,0.327c-0.014,0.089 -0.027,0.193 -0.038,0.313l-0.361,3.694c-0.011,0.103 -0.016,0.204 -0.017,0.303c-0.002,0.099 0.005,0.212 0.019,0.339c0.015,0.127 0.041,0.239 0.078,0.335c0.038,0.096 0.096,0.179 0.174,0.251c0.079,0.071 0.175,0.112 0.288,0.123c0.139,0.014 0.262,-0.019 0.367,-0.097c0.105,-0.079 0.186,-0.189 0.243,-0.331c0.058,-0.142 0.1,-0.276 0.128,-0.4c0.027,-0.125 0.047,-0.256 0.06,-0.392Zm-3.09,-0.302l0.361,-3.694c0.039,-0.399 0.122,-0.76 0.249,-1.085c0.128,-0.325 0.299,-0.608 0.513,-0.848c0.215,-0.241 0.487,-0.419 0.815,-0.535c0.328,-0.115 0.7,-0.153 1.116,-0.112c0.412,0.04 0.768,0.149 1.068,0.326c0.299,0.177 0.531,0.405 0.695,0.684c0.164,0.28 0.277,0.59 0.339,0.932c0.063,0.341 0.074,0.711 0.035,1.11l-0.361,3.694c-0.037,0.382 -0.122,0.735 -0.254,1.06c-0.133,0.324 -0.309,0.606 -0.528,0.846c-0.22,0.241 -0.494,0.421 -0.821,0.542c-0.327,0.12 -0.688,0.161 -1.084,0.123c-0.402,-0.04 -0.753,-0.149 -1.052,-0.33c-0.299,-0.18 -0.533,-0.409 -0.7,-0.687c-0.168,-0.278 -0.284,-0.589 -0.35,-0.932c-0.065,-0.344 -0.079,-0.709 -0.041,-1.094Z" style="fill:#3b9bd5;fill-rule:nonzero;"/></g></g></g></svg>