<?xml version="1.0" encoding="UTF-8" standalone="no"?><!DOCTYPE svg PUBLIC "-//W3C//DTD SVG 1.1//EN" "http://www.w3.org/Graphics/SVG/1.1/DTD/svg11.dtd"><svg width="100%" height="100%" viewBox="0 0 99 99" version="1.1" xmlns="http://www.w3.org/2000/svg" xmlns:xlink="http://www.w3.org/1999/xlink" xml:space="preserve" style="fill-rule:evenodd;clip-rule:evenodd;stroke-linejoin:round;stroke-miterlimit:1.41421;"><g id="unsynchedMode"><path d="M49.099,32.458c-16.272,0 -29.514,13.24 -29.514,29.514c0,16.271 13.241,29.511 29.514,29.511c16.273,0 29.51,-13.241 29.51,-29.511c0,-16.273 -13.238,-29.514 -29.51,-29.514l0,0Zm0,52.481c-12.666,0 -22.969,-10.301 -22.969,-22.967c0,-12.67 10.303,-22.971 22.969,-22.971c12.663,0 22.967,10.301 22.967,22.971c-0.002,12.666 -10.304,22.967 -22.967,22.967l0,0Z" style="fill:#404040;fill-rule:nonzero;"/><path d="M78.54,21.742c-0.7,-0.058 -1.343,-0.417 -1.761,-0.981c-4.002,-5.416 -10.424,-8.755 -17.262,-8.755c-0.433,0 -0.867,0.014 -1.302,0.04c-0.582,0.035 -1.153,-0.138 -1.618,-0.489c-4.16,-3.144 -9.202,-4.846 -14.483,-4.846c-9.456,0 -17.849,5.484 -21.766,13.787c-0.352,0.745 -1.056,1.262 -1.872,1.375c-10.424,1.452 -18.476,10.426 -18.476,21.244c0,9.749 6.543,17.984 15.463,20.584c-0.029,-0.573 -0.044,-1.148 -0.044,-1.729c0,-18.571 15.108,-33.681 33.68,-33.681c18.569,0 33.676,15.108 33.676,33.681c0,0.578 -0.014,1.154 -0.043,1.728c8.918,-2.601 15.461,-10.835 15.461,-20.583c0,-11.22 -8.664,-20.459 -19.653,-21.375l0,0Z" style="fill:#404040;fill-rule:nonzero;"/><path d="M57.741,45.648l7.26,7.259l-8.84,8.84l8.84,8.839l-7.26,7.259l-8.839,-8.839l-8.84,8.839l-7.259,-7.259l8.84,-8.839l-8.84,-8.84l7.259,-7.259l8.84,8.839l8.839,-8.839l0,0Z" style="fill:#404040;"/></g></svg>