<?xml version="1.0" encoding="UTF-8" standalone="no"?><!DOCTYPE svg PUBLIC "-//W3C//DTD SVG 1.1//EN" "http://www.w3.org/Graphics/SVG/1.1/DTD/svg11.dtd"><svg width="100%" height="100%" viewBox="0 0 50 50" version="1.1" xmlns="http://www.w3.org/2000/svg" xmlns:xlink="http://www.w3.org/1999/xlink" xml:space="preserve" style="fill-rule:evenodd;clip-rule:evenodd;stroke-linejoin:round;stroke-miterlimit:1.41421;"><g><path d="M18.734,25.067l1.323,-3.489l2.455,-2.171l2.811,-0.551l4.038,1.69l1.734,2.277l0.182,3.538l-1.172,2.588l-1.969,1.353l-2.502,0.613l-2.263,-0.218l-2.697,-1.689l-1.509,-2.141l-0.431,-1.8Zm2.551,-1.924c-0.25,0 -0.474,0.149 -0.571,0.381c-0.097,0.232 -0.043,0.498 0.134,0.675l1.609,1.61l-0.535,2.137c-0.058,0.234 0.027,0.482 0.215,0.633c0.187,0.152 0.446,0.177 0.663,0.07l2.2,-1.099l2.199,1.099c0.089,0.044 0.183,0.066 0.277,0.066c0.138,0 0.276,-0.047 0.388,-0.135c0.188,-0.151 0.272,-0.399 0.214,-0.633l-0.535,-2.137l1.61,-1.61c0.176,-0.177 0.229,-0.443 0.134,-0.675c-0.096,-0.231 -0.322,-0.382 -0.573,-0.382l-2.093,0l-1.068,-2.135c-0.21,-0.42 -0.898,-0.42 -1.108,0l-1.066,2.135l-2.094,0Z" style="fill:#fff;"/><path d="M39.094,19.647c-0.119,-0.14 -0.291,-0.219 -0.473,-0.219l-9.287,0c-0.114,0 -0.215,0.039 -0.307,0.093c-1.13,-0.832 -2.52,-1.331 -4.027,-1.331c-1.507,0 -2.898,0.499 -4.028,1.331c-0.092,-0.054 -0.192,-0.093 -0.306,-0.093l-9.287,0c-0.182,0 -0.354,0.079 -0.473,0.219c-0.117,0.139 -0.167,0.322 -0.138,0.501l0.619,3.715c0.05,0.299 0.309,0.518 0.611,0.518l6.222,0c-0.018,0.204 -0.031,0.41 -0.031,0.619c0,0.209 0.013,0.415 0.031,0.619l-5.603,0c-0.182,0 -0.354,0.079 -0.473,0.219c-0.116,0.139 -0.167,0.322 -0.138,0.502l0.62,3.715c0.049,0.298 0.308,0.517 0.61,0.517l7.861,0c1.107,0.778 2.451,1.238 3.903,1.238c1.451,0 2.796,-0.46 3.903,-1.238l7.86,0c0.302,0 0.561,-0.219 0.611,-0.517l0.619,-3.715c0.031,-0.18 -0.02,-0.363 -0.138,-0.502c-0.118,-0.14 -0.29,-0.219 -0.473,-0.219l-5.603,0c0.019,-0.204 0.031,-0.41 0.031,-0.619c0,-0.209 -0.012,-0.415 -0.031,-0.619l6.223,0c0.302,0 0.561,-0.219 0.61,-0.518l0.619,-3.715c0.031,-0.179 -0.02,-0.362 -0.137,-0.501l0,0Zm-26.571,3.496l-0.414,-2.477l7.642,0c-0.593,0.717 -1.037,1.559 -1.298,2.477l-5.93,0l0,0Zm1.238,6.191l-0.413,-2.477l5.105,0c0.261,0.918 0.705,1.76 1.298,2.477l-5.99,0l0,0Zm11.239,1.238c-3.073,0 -5.573,-2.5 -5.573,-5.572c0,-3.072 2.5,-5.572 5.573,-5.572c3.072,0 5.572,2.5 5.572,5.572c0,3.072 -2.5,5.572 -5.572,5.572Zm11.652,-3.715l-0.414,2.477l-5.989,0c0.593,-0.717 1.036,-1.559 1.297,-2.477l5.106,0Zm0.825,-3.714l-5.931,0c-0.261,-0.918 -0.704,-1.76 -1.297,-2.477l7.641,0l-0.413,2.477Z" style="fill:#fff;fill-rule:nonzero;"/></g></svg>