<?xml version="1.0" encoding="UTF-8" standalone="no"?><!DOCTYPE svg PUBLIC "-//W3C//DTD SVG 1.1//EN" "http://www.w3.org/Graphics/SVG/1.1/DTD/svg11.dtd"><svg width="100%" height="100%" viewBox="0 0 233 233" version="1.1" xmlns="http://www.w3.org/2000/svg" xmlns:xlink="http://www.w3.org/1999/xlink" xml:space="preserve" style="fill-rule:evenodd;clip-rule:evenodd;stroke-linejoin:round;stroke-miterlimit:1.41421;"><g><path id="Play" d="M8.456,128.58l117.432,73.988c3.471,2.067 7.782,1.723 11.038,1.723c13.023,0 12.965,-10.055 12.965,-12.602l0,-151.225c0,-2.153 0.057,-12.602 -12.965,-12.602c-3.256,0 -7.567,-0.343 -11.038,1.723l-117.431,73.988c-9.639,5.735 -7.973,12.504 -7.973,12.504c0,0 -1.666,6.768 7.972,12.503l0,0Z" style="fill:#333;"/><path id="Play1" d="M85.021,129.115l122.457,77.155c3.62,2.155 8.116,1.796 11.511,1.796c13.58,0 13.52,-10.485 13.52,-13.141l0,-157.697c0,-2.245 0.059,-13.141 -13.52,-13.141c-3.395,0 -7.891,-0.358 -11.511,1.797l-122.456,77.154c-10.051,5.981 -8.314,13.039 -8.314,13.039c0,0 -1.738,7.058 8.313,13.038Z" style="fill:#333;"/></g></svg>