<?xml version="1.0" encoding="UTF-8" standalone="no"?><!DOCTYPE svg PUBLIC "-//W3C//DTD SVG 1.1//EN" "http://www.w3.org/Graphics/SVG/1.1/DTD/svg11.dtd"><svg width="100%" height="100%" viewBox="0 0 99 99" version="1.1" xmlns="http://www.w3.org/2000/svg" xmlns:xlink="http://www.w3.org/1999/xlink" xml:space="preserve" style="fill-rule:evenodd;clip-rule:evenodd;stroke-linejoin:round;stroke-miterlimit:1.41421;"><g id="synchedModeHover"><path d="M49.099,32.458c-16.272,0 -29.514,13.24 -29.514,29.514c0,16.271 13.241,29.511 29.514,29.511c16.273,0 29.51,-13.241 29.51,-29.511c0,-16.273 -13.238,-29.514 -29.51,-29.514l0,0Zm0,52.481c-12.666,0 -22.969,-10.301 -22.969,-22.967c0,-12.67 10.303,-22.971 22.969,-22.971c12.663,0 22.967,10.301 22.967,22.971c-0.002,12.666 -10.304,22.967 -22.967,22.967l0,0Z" style="fill:#404040;fill-rule:nonzero;"/><path d="M78.54,21.742c-0.7,-0.058 -1.343,-0.417 -1.761,-0.981c-4.002,-5.416 -10.424,-8.755 -17.262,-8.755c-0.433,0 -0.867,0.014 -1.302,0.04c-0.582,0.035 -1.153,-0.138 -1.618,-0.489c-4.16,-3.144 -9.202,-4.846 -14.483,-4.846c-9.456,0 -17.849,5.484 -21.766,13.787c-0.352,0.745 -1.056,1.262 -1.872,1.375c-10.424,1.452 -18.476,10.426 -18.476,21.244c0,9.749 6.543,17.984 15.463,20.584c-0.029,-0.573 -0.044,-1.148 -0.044,-1.729c0,-18.571 15.108,-33.681 33.68,-33.681c18.569,0 33.676,15.108 33.676,33.681c0,0.578 -0.014,1.154 -0.043,1.728c8.918,-2.601 15.461,-10.835 15.461,-20.583c0,-11.22 -8.664,-20.459 -19.653,-21.375l0,0Z" style="fill:#404040;fill-rule:nonzero;"/><path d="M48.975,46.785l0,-1.262c0,-0.507 -0.287,-0.969 -0.74,-1.195c-0.454,-0.228 -0.995,-0.176 -1.4,0.129l-6.081,4.592c-0.336,0.252 -0.532,0.647 -0.532,1.066c0,0.419 0.196,0.814 0.532,1.066l6.081,4.588c0.405,0.306 0.946,0.354 1.4,0.13c0.453,-0.228 0.74,-0.69 0.74,-1.197l0,-1.178c5.141,0.502 9.318,4.338 10.198,9.354c0.199,1.072 1.123,1.846 2.209,1.846l2.233,0c0.65,0 1.273,-0.276 1.695,-0.772c0.43,-0.489 0.617,-1.146 0.518,-1.794c-1.262,-8.365 -8.258,-14.851 -16.853,-15.373l0,0Z" style="fill:#404040;fill-rule:nonzero;"/><path d="M57.163,72.823l-6.082,-4.588c-0.403,-0.306 -0.946,-0.354 -1.4,-0.129c-0.453,0.227 -0.74,0.688 -0.74,1.196l0,1.178c-5.142,-0.502 -9.319,-4.338 -10.198,-9.355c-0.199,-1.072 -1.122,-1.845 -2.208,-1.845l-2.234,0c-0.652,0 -1.274,0.276 -1.696,0.772c-0.428,0.49 -0.617,1.146 -0.518,1.795c1.262,8.363 8.259,14.851 16.854,15.371l0,1.263c0,0.507 0.287,0.971 0.74,1.196c0.454,0.226 0.997,0.176 1.4,-0.131l6.082,-4.592c0.334,-0.252 0.53,-0.646 0.53,-1.064c0,-0.418 -0.196,-0.815 -0.53,-1.067Z" style="fill:#404040;fill-rule:nonzero;"/></g></svg>