<?xml version="1.0" encoding="UTF-8" standalone="no"?><!DOCTYPE svg PUBLIC "-//W3C//DTD SVG 1.1//EN" "http://www.w3.org/Graphics/SVG/1.1/DTD/svg11.dtd"><svg width="100%" height="100%" viewBox="0 0 513 513" version="1.1" xmlns="http://www.w3.org/2000/svg" xmlns:xlink="http://www.w3.org/1999/xlink" xml:space="preserve" style="fill-rule:evenodd;clip-rule:evenodd;stroke-linejoin:round;stroke-miterlimit:1.41421;"><g><g><path d="M66.864,496.869l-2.353,-450.286l28.417,-31.285l31.825,-4.558l286.439,-2.144l28.383,19.723l10.958,33.239l-1.813,438.766l-192.111,-104.345l-189.745,100.89Z" style="fill:#299cbb;"/><path d="M405.334,0l-298.667,0c-29.419,0 -53.333,23.936 -53.333,53.333l0,448c0,3.776 2.005,7.275 5.248,9.195c3.264,1.92 7.275,1.963 10.603,0.128l186.815,-103.787l186.816,103.787c1.621,0.896 3.392,1.344 5.184,1.344c1.877,0 3.755,-0.491 5.419,-1.472c3.243,-1.92 5.248,-5.419 5.248,-9.195l0,-448c0,-29.397 -23.915,-53.333 -53.333,-53.333Zm32,483.2l-176.149,-97.856c-1.622,-0.896 -3.393,-1.344 -5.185,-1.344c-1.792,0 -3.563,0.448 -5.184,1.344l-176.149,97.856l0,-429.867c0,-17.643 14.357,-32 32,-32l298.667,0c17.643,0 32,14.357 32,32l0,429.867Z" style="fill-rule:nonzero;"/></g><g><path d="M166.396,357.503l15.179,-101.915l-68.732,-72.247l90.553,-13.817l54.136,-91.166l54.239,90.872l93.489,12.987l-73.472,73.12l20.523,105.042l-95.97,-49.915l-89.945,47.039Z" style="fill:#fecb58;"/><path d="M406.507,170.731l-90.539,-10.048l-50.645,-91.179c-3.797,-6.763 -14.869,-6.763 -18.667,0l-50.645,91.179l-90.539,10.048c-4.053,0.469 -7.509,3.221 -8.875,7.083c-1.365,3.861 -0.384,8.171 2.517,11.072l70.635,70.635l-20.203,101.056c-0.811,4.075 0.811,8.256 4.16,10.709c3.392,2.453 7.829,2.709 11.477,0.704l90.817,-50.454l90.816,50.453c1.621,0.896 3.413,1.344 5.184,1.344c2.219,0 4.416,-0.683 6.272,-2.048c3.349,-2.453 4.971,-6.635 4.16,-10.709l-20.202,-101.056l70.635,-70.635c2.901,-2.901 3.861,-7.189 2.517,-11.072c-1.344,-3.882 -4.822,-6.634 -8.875,-7.082Zm-83.371,77.738c-2.517,2.539 -3.627,6.144 -2.923,9.643l16.811,84.032l-75.84,-42.133c-1.621,-0.896 -3.392,-1.344 -5.184,-1.344c-1.792,0 -3.563,0.448 -5.184,1.344l-75.84,42.133l16.811,-84.032c0.704,-3.499 -0.405,-7.125 -2.923,-9.643l-58.987,-58.987l73.963,-8.213c3.413,-0.384 6.464,-2.389 8.149,-5.419l44.011,-79.21l44.011,79.211c1.685,3.008 4.736,5.035 8.149,5.419l73.963,8.213l-58.987,58.986Z" style="fill-rule:nonzero;"/></g></g></svg>